<svg width="58" height="152" viewBox="0 0 58 152" fill="none" xmlns="http://www.w3.org/2000/svg">
<g opacity="0.1">
<path opacity="0.1" d="M44.9486 12.7539C41.1907 28.1771 45.3434 84.9336 45.3434 84.9336C45.3434 84.9336 51.2376 122.171 51.2376 130.836C51.2376 137.425 54.4033 146.916 55.9051 151.04L57.1318 150.821C57.1318 150.821 51.6889 137.199 51.6889 128.569C51.6889 119.939 45.7947 82.6667 45.7947 82.6667C45.7947 82.6667 42.0015 30.797 44.9486 12.7539Z" fill="black"/>
<path opacity="0.1" d="M15.8711 78.1116L15.9839 78.3446C16.0192 78.1116 16.0544 77.8644 16.0756 77.6384C16.0156 77.7996 15.9473 77.9575 15.8711 78.1116V78.1116Z" fill="black"/>
<path opacity="0.1" d="M45.68 9.44877C45.886 8.66538 46.2324 7.92601 46.7023 7.26666L0 0C0 0 0.274967 0.88274 0.747348 2.45753L45.68 9.44877Z" fill="black"/>
</g>
</svg>
