<svg width="42" height="126" viewBox="0 0 42 126" fill="none" xmlns="http://www.w3.org/2000/svg">
<path opacity="0.1" d="M17.6755 120.787C19.0363 115.794 19.4381 72.6386 19.0363 76.2967C18.8106 78.3376 18.1268 90.8301 19.0363 74.9337C19.9458 59.0374 2.26319 15.8963 2.26319 15.8963L41.8234 0.656751C41.6401 0.423708 41.4497 0.204795 41.2593 0L0 15.8963C0 15.8963 17.6826 59.0445 16.7731 74.9337C15.8636 90.823 16.5475 78.3376 16.7731 76.2967C17.1749 72.6598 16.7731 115.843 15.4123 120.787C15.4123 120.787 22.8365 126.224 30.1337 125.645C23.6402 125.158 17.6755 120.787 17.6755 120.787Z" fill="black"/>
</svg>
