<svg width="62" height="54" viewBox="0 0 62 54" fill="none" xmlns="http://www.w3.org/2000/svg">
<path opacity="0.1" d="M47.845 32.1735C53.1047 31.2766 58.886 28.9391 60.6487 23.897C61.7767 20.6697 60.9166 16.9975 59.0764 14.1233C57.2362 11.2491 54.5288 9.03873 51.7369 7.0614C47.2034 3.86942 42.2046 1.12941 36.7476 0.168991C35.8067 -0.0563302 34.826 -0.0563302 33.8851 0.168991C33.0668 0.504451 32.2888 0.93083 31.5655 1.44013C27.8358 3.59401 23.1966 2.66184 18.8746 2.43586C14.5527 2.20988 9.37061 3.43159 8.00986 7.52043C7.58684 8.7845 7.61504 10.1474 7.30482 11.4468C6.59977 14.6247 4.20966 17.0964 2.36949 19.7446C0.529319 22.3928 -0.887813 25.9732 0.66329 28.8262C1.19207 29.7936 2.07338 30.6834 2.07338 31.7851C1.93732 32.5681 1.70033 33.3301 1.36834 34.052C0.726744 36.3965 2.59511 38.7622 4.75255 39.878C6.91 40.9938 9.39177 41.3398 11.5915 42.3779C13.6504 43.3956 15.3742 44.9841 16.5578 46.9546C17.7415 48.9251 18.3352 51.1947 18.2683 53.4934C20.2706 53.7264 22.6043 53.8464 23.958 52.3493C24.5644 51.6784 24.8605 50.7816 25.4104 50.0683C26.1155 49.1362 27.2153 48.5853 28.1178 47.8368C32.8628 43.9315 29.4926 38.5363 32.1789 34.3274C33.589 32.1594 35.831 32.8232 38.1013 32.8585C41.3634 32.9349 44.6255 32.7056 47.845 32.1735V32.1735Z" fill="black"/>
</svg>
