<svg width="21" height="15" viewBox="0 0 21 15" fill="none" xmlns="http://www.w3.org/2000/svg">
<path d="M16.7166 13.4903C13.2408 15.2417 0 14.0341 0 14.0341C0 14.0341 6.9024 2.65031 10.3712 0.89896C11.2014 0.433722 12.1171 0.141599 13.063 0.0401455C14.0089 -0.0613085 14.9655 0.0300122 15.8752 0.30863C16.785 0.587248 17.629 1.0474 18.3565 1.66135C19.084 2.27531 19.68 3.0304 20.1085 3.88112C20.5369 4.73185 20.7891 5.66061 20.8498 6.61153C20.9104 7.56245 20.7784 8.51582 20.4615 9.41426C20.1446 10.3127 19.6494 11.1376 19.0059 11.8393C18.3623 12.541 17.5836 13.1051 16.7166 13.4974V13.4903Z" fill="#6C63FF"/>
</svg>
