<svg width="48" height="126" viewBox="0 0 48 126" fill="none" xmlns="http://www.w3.org/2000/svg">
<path d="M0 15.9175C0 15.9175 17.6826 59.0657 16.7731 74.955C15.8636 90.8442 16.5475 78.3588 16.7731 76.3179C17.175 72.6811 16.7731 115.865 15.4123 120.808C15.4123 120.808 34.0044 134.43 41.2594 116.267C41.2594 116.267 40.8081 84.9334 44.8833 80.8446C47.1254 78.5989 46.9068 73.1895 46.244 68.7758C45.2658 62.3913 45.0293 55.9147 45.539 49.4757C45.814 46.1566 46.1947 43.2329 46.6882 42.2372C48.049 39.5113 49.4097 8.62964 41.2453 0L0 15.9175Z" fill="#605D82"/>
</svg>
