<svg width="62" height="54" viewBox="0 0 62 54" fill="none" xmlns="http://www.w3.org/2000/svg">
<path d="M47.845 32.1735C53.1047 31.2766 58.886 28.9391 60.6487 23.897C61.7767 20.6697 60.9166 16.9975 59.0764 14.1233C57.2362 11.2491 54.5289 9.03873 51.7369 7.0614C47.2034 3.86942 42.2046 1.12941 36.7476 0.168991C35.8067 -0.0563302 34.826 -0.0563302 33.8851 0.168991C33.0668 0.504451 32.2888 0.930836 31.5655 1.44013C27.8358 3.59401 23.1966 2.66184 18.8746 2.43586C14.5527 2.20988 9.37062 3.43158 8.00988 7.52042C7.58685 8.7845 7.61506 10.1475 7.30484 11.4468C6.59979 14.6247 4.20968 17.0964 2.36951 19.7446C0.529336 22.3928 -0.887818 25.9732 0.663285 28.8262C1.19207 29.7936 2.07338 30.6834 2.07338 31.7851C1.93732 32.5681 1.70032 33.3301 1.36833 34.052C0.726739 36.3965 2.5951 38.7622 4.75255 39.878C6.90999 40.9938 9.39176 41.3398 11.5915 42.3779C13.6588 43.3945 15.39 44.9862 16.5778 46.9625C17.7657 48.9387 18.3599 51.2159 18.2895 53.5216C20.2918 53.7547 22.6255 53.8747 23.9792 52.3776C24.5855 51.7067 24.8816 50.8098 25.4316 50.0966C26.1366 49.1644 27.2365 48.6136 28.139 47.865C32.8839 43.9598 29.5138 38.5645 32.2 34.3556C33.6101 32.1876 35.8522 32.8514 38.1224 32.8868C41.3784 32.9526 44.6334 32.7138 47.845 32.1735Z" fill="#4A4347"/>
</svg>
