<svg width="20" height="17" viewBox="0 0 20 17" fill="none" xmlns="http://www.w3.org/2000/svg">
<path d="M3.13757 12.9364C6.26798 15.2527 19.5229 16.2979 19.5229 16.2979C19.5229 16.2979 14.6439 3.9113 11.5135 1.59499C10.7744 0.989683 9.92036 0.541008 9.00301 0.276191C8.08566 0.0113734 7.12417 -0.0640603 6.17684 0.0544288C5.22951 0.172918 4.31606 0.482887 3.4919 0.965527C2.66774 1.44817 1.95002 2.0934 1.38227 2.86216C0.814512 3.63093 0.408552 4.50718 0.188992 5.43779C-0.0305674 6.36839 -0.0591594 7.334 0.104971 8.276C0.269102 9.218 0.622536 10.1168 1.14382 10.9179C1.66511 11.719 2.3434 12.4057 3.13757 12.9364V12.9364Z" fill="#6C63FF"/>
</svg>
